<svg xmlns="http://www.w3.org/2000/svg" xmlns:xlink="http://www.w3.org/1999/xlink" width="60" zoomAndPan="magnify" viewBox="0 0 45 44.999999" height="60" preserveAspectRatio="xMidYMid meet" version="1.0"><defs><g/></defs><rect x="-4.5" width="54" fill="#ffffff" y="-4.5" height="53.999999" fill-opacity="1"/><rect x="-4.5" width="54" fill="#ffffff" y="-4.5" height="53.999999" fill-opacity="1"/><rect x="-4.5" width="54" fill="#151515" y="-4.5" height="53.999999" fill-opacity="1"/><g fill="#5ce1e6" fill-opacity="1"><g transform="translate(1.364254, 41.866949)"><g><path d="M 0.96875 0 L 0.96875 -8.15625 L 3.265625 -8.15625 C 3.890625 -8.15625 4.453125 -8.078125 4.953125 -7.921875 C 5.453125 -7.765625 5.878906 -7.519531 6.234375 -7.1875 C 6.597656 -6.863281 6.875 -6.445312 7.0625 -5.9375 C 7.257812 -5.425781 7.359375 -4.820312 7.359375 -4.125 C 7.359375 -3.414062 7.257812 -2.800781 7.0625 -2.28125 C 6.875 -1.769531 6.601562 -1.34375 6.25 -1 C 5.90625 -0.664062 5.488281 -0.414062 5 -0.25 C 4.507812 -0.0820312 3.960938 0 3.359375 0 Z M 2.796875 -1.484375 L 3.15625 -1.484375 C 3.5 -1.484375 3.8125 -1.53125 4.09375 -1.625 C 4.382812 -1.71875 4.628906 -1.863281 4.828125 -2.0625 C 5.023438 -2.269531 5.179688 -2.539062 5.296875 -2.875 C 5.410156 -3.207031 5.46875 -3.625 5.46875 -4.125 C 5.46875 -4.601562 5.410156 -5.003906 5.296875 -5.328125 C 5.179688 -5.660156 5.023438 -5.925781 4.828125 -6.125 C 4.628906 -6.320312 4.382812 -6.460938 4.09375 -6.546875 C 3.8125 -6.628906 3.5 -6.671875 3.15625 -6.671875 L 2.796875 -6.671875 Z M 2.796875 -1.484375 "/></g></g></g><g fill="#5ce1e6" fill-opacity="1"><g transform="translate(9.310185, 41.866949)"><g><path d="M 0.96875 0 L 0.96875 -8.15625 L 6.0625 -8.15625 L 6.0625 -6.609375 L 2.796875 -6.609375 L 2.796875 -4.96875 L 5.578125 -4.96875 L 5.578125 -3.421875 L 2.796875 -3.421875 L 2.796875 -1.546875 L 6.1875 -1.546875 L 6.1875 0 Z M 0.96875 0 "/></g></g></g><g fill="#5ce1e6" fill-opacity="1"><g transform="translate(16.167462, 41.866949)"><g><path d="M 3.453125 0.15625 C 2.921875 0.15625 2.390625 0.0546875 1.859375 -0.140625 C 1.328125 -0.335938 0.851562 -0.632812 0.4375 -1.03125 L 1.484375 -2.296875 C 1.773438 -2.046875 2.097656 -1.835938 2.453125 -1.671875 C 2.804688 -1.515625 3.15625 -1.4375 3.5 -1.4375 C 3.882812 -1.4375 4.171875 -1.503906 4.359375 -1.640625 C 4.546875 -1.785156 4.640625 -1.984375 4.640625 -2.234375 C 4.640625 -2.359375 4.613281 -2.460938 4.5625 -2.546875 C 4.507812 -2.640625 4.429688 -2.722656 4.328125 -2.796875 C 4.222656 -2.867188 4.097656 -2.9375 3.953125 -3 C 3.804688 -3.0625 3.644531 -3.128906 3.46875 -3.203125 L 2.40625 -3.65625 C 2.195312 -3.738281 1.992188 -3.847656 1.796875 -3.984375 C 1.597656 -4.117188 1.421875 -4.273438 1.265625 -4.453125 C 1.109375 -4.628906 0.984375 -4.835938 0.890625 -5.078125 C 0.804688 -5.316406 0.765625 -5.582031 0.765625 -5.875 C 0.765625 -6.21875 0.832031 -6.535156 0.96875 -6.828125 C 1.113281 -7.117188 1.316406 -7.375 1.578125 -7.59375 C 1.835938 -7.820312 2.144531 -8 2.5 -8.125 C 2.851562 -8.25 3.242188 -8.3125 3.671875 -8.3125 C 4.140625 -8.3125 4.601562 -8.21875 5.0625 -8.03125 C 5.53125 -7.851562 5.941406 -7.585938 6.296875 -7.234375 L 5.359375 -6.0625 C 5.085938 -6.28125 4.816406 -6.441406 4.546875 -6.546875 C 4.285156 -6.660156 3.992188 -6.71875 3.671875 -6.71875 C 3.347656 -6.71875 3.09375 -6.648438 2.90625 -6.515625 C 2.71875 -6.390625 2.625 -6.210938 2.625 -5.984375 C 2.625 -5.859375 2.65625 -5.75 2.71875 -5.65625 C 2.78125 -5.570312 2.867188 -5.492188 2.984375 -5.421875 C 3.097656 -5.347656 3.226562 -5.28125 3.375 -5.21875 C 3.53125 -5.15625 3.695312 -5.085938 3.875 -5.015625 L 4.921875 -4.59375 C 5.421875 -4.394531 5.8125 -4.117188 6.09375 -3.765625 C 6.382812 -3.410156 6.53125 -2.945312 6.53125 -2.375 C 6.53125 -2.03125 6.460938 -1.707031 6.328125 -1.40625 C 6.191406 -1.101562 5.988281 -0.835938 5.71875 -0.609375 C 5.457031 -0.378906 5.132812 -0.191406 4.75 -0.046875 C 4.375 0.0859375 3.941406 0.15625 3.453125 0.15625 Z M 3.453125 0.15625 "/></g></g></g><g fill="#5ce1e6" fill-opacity="1"><g transform="translate(23.124845, 41.866949)"><g><path d="M 0.96875 0 L 0.96875 -8.15625 L 2.796875 -8.15625 L 2.796875 0 Z M 0.96875 0 "/></g></g></g><g fill="#5ce1e6" fill-opacity="1"><g transform="translate(26.891341, 41.866949)"><g><path d="M 4.5625 0.15625 C 4.007812 0.15625 3.488281 0.0664062 3 -0.109375 C 2.507812 -0.296875 2.082031 -0.5625 1.71875 -0.90625 C 1.363281 -1.257812 1.082031 -1.695312 0.875 -2.21875 C 0.675781 -2.738281 0.578125 -3.34375 0.578125 -4.03125 C 0.578125 -4.707031 0.679688 -5.3125 0.890625 -5.84375 C 1.097656 -6.375 1.382812 -6.820312 1.75 -7.1875 C 2.113281 -7.550781 2.535156 -7.828125 3.015625 -8.015625 C 3.492188 -8.210938 4.007812 -8.3125 4.5625 -8.3125 C 5.144531 -8.3125 5.648438 -8.203125 6.078125 -7.984375 C 6.503906 -7.765625 6.851562 -7.519531 7.125 -7.25 L 6.15625 -6.0625 C 5.945312 -6.25 5.722656 -6.40625 5.484375 -6.53125 C 5.253906 -6.65625 4.96875 -6.71875 4.625 -6.71875 C 4.300781 -6.71875 4.007812 -6.65625 3.75 -6.53125 C 3.488281 -6.414062 3.257812 -6.242188 3.0625 -6.015625 C 2.875 -5.796875 2.726562 -5.519531 2.625 -5.1875 C 2.519531 -4.863281 2.46875 -4.5 2.46875 -4.09375 C 2.46875 -3.25 2.65625 -2.59375 3.03125 -2.125 C 3.414062 -1.664062 3.988281 -1.4375 4.75 -1.4375 C 4.914062 -1.4375 5.078125 -1.457031 5.234375 -1.5 C 5.398438 -1.539062 5.53125 -1.601562 5.625 -1.6875 L 5.625 -3.09375 L 4.28125 -3.09375 L 4.28125 -4.59375 L 7.265625 -4.59375 L 7.265625 -0.84375 C 6.972656 -0.5625 6.59375 -0.320312 6.125 -0.125 C 5.664062 0.0625 5.144531 0.15625 4.5625 0.15625 Z M 4.5625 0.15625 "/></g></g></g><g fill="#5ce1e6" fill-opacity="1"><g transform="translate(34.874812, 41.866949)"><g><path d="M 0.96875 0 L 0.96875 -8.15625 L 2.859375 -8.15625 L 4.984375 -4.109375 L 5.78125 -2.296875 L 5.828125 -2.296875 C 5.785156 -2.734375 5.738281 -3.21875 5.6875 -3.75 C 5.632812 -4.289062 5.609375 -4.800781 5.609375 -5.28125 L 5.609375 -8.15625 L 7.359375 -8.15625 L 7.359375 0 L 5.46875 0 L 3.34375 -4.0625 L 2.546875 -5.84375 L 2.484375 -5.84375 C 2.523438 -5.394531 2.570312 -4.910156 2.625 -4.390625 C 2.6875 -3.867188 2.71875 -3.367188 2.71875 -2.890625 L 2.71875 0 Z M 0.96875 0 "/></g></g></g><path stroke-linecap="round" transform="matrix(0.746606, 0, 0, 0.75, 1.547585, 29.151198)" fill="none" stroke-linejoin="miter" d="M 4.001536 0.501528 L 51.257033 0.501528 " stroke="#5ce1e6" stroke-width="1" stroke-opacity="1" stroke-miterlimit="4"/><path stroke-linecap="butt" transform="matrix(0.746606, 0, 0, 0.75, 1.547585, 29.526198)" fill="none" stroke-linejoin="round" d="M 0.501322 -1.498472 L 3.499263 -1.498472 L 3.499263 1.501528 L 0.501322 1.501528 Z M 0.501322 -1.498472 " stroke="#5ce1e6" stroke-width="1" stroke-opacity="1" stroke-miterlimit="4"/><path stroke-linecap="butt" transform="matrix(0.746606, 0, 0, 0.75, 42.800887, 29.526198)" fill="none" stroke-linejoin="round" d="M -3.500356 -1.498472 L -0.502415 -1.498472 L -0.502415 1.501528 L -3.500356 1.501528 Z M -3.500356 -1.498472 " stroke="#5ce1e6" stroke-width="1" stroke-opacity="1" stroke-miterlimit="4"/><g fill="#5ce1e6" fill-opacity="1"><g transform="translate(0.543331, 25.165167)"><g><path d="M 13.296875 -11.296875 L 25.015625 0.453125 L 17.5 0.453125 L 9.359375 -7.71875 L 7.328125 -5.6875 L 7.328125 0.453125 L 1.8125 0.453125 L 1.8125 -22.65625 L 7.328125 -22.65625 L 7.328125 -12.796875 L 17.203125 -22.65625 L 24.65625 -22.65625 Z M 9.359375 -8.96875 L 17.890625 -0.453125 L 22.84375 -0.453125 L 12.015625 -11.296875 L 22.484375 -21.765625 L 17.59375 -21.765625 L 6.4375 -10.640625 L 6.4375 -21.765625 L 2.71875 -21.765625 L 2.71875 -0.453125 L 6.4375 -0.453125 L 6.4375 -6.046875 Z M 9.359375 -8.96875 "/></g></g></g><g fill="#5ce1e6" fill-opacity="1"><g transform="translate(26.510265, 25.165167)"><g><path d="M 7.328125 -9.296875 L 7.328125 0.453125 L 1.8125 0.453125 L 1.8125 -22.65625 L 14.515625 -22.65625 L 14.515625 -17.59375 L 7.328125 -17.59375 L 7.328125 -14.34375 L 15.6875 -14.34375 L 15.6875 -9.296875 Z M 2.71875 -21.765625 L 2.71875 -0.453125 L 6.4375 -0.453125 L 6.4375 -10.203125 L 14.78125 -10.203125 L 14.78125 -13.453125 L 6.4375 -13.453125 L 6.4375 -18.484375 L 13.625 -18.484375 L 13.625 -21.765625 Z M 2.71875 -21.765625 "/></g></g></g></svg>